<svg xmlns="http://www.w3.org/2000/svg" width="181.07" height="73" viewBox="0 0 181.07 73">
  <g id="Group_175" data-name="Group 175" transform="translate(0 0)">
    <g id="Group_175-2" data-name="Group 175" transform="translate(54.991 15.455)">
      <path id="Path_2705" data-name="Path 2705" d="M290.533,106.354l8.926-8.92v18.693c0,2.807.337,4.884,3.368,4.884v.337H290.814v-3.986c-2.357,2.47-5.557,4.6-9.319,4.6-3.817,0-7.073-2.189-7.073-7.69v-7.936l8.926-8.905v17.851c0,2.751,1.235,3.873,2.975,3.873a6.252,6.252,0,0,0,4.21-2.021V106.354Z" transform="translate(-240.438 -81.298)" fill="#fff"/>
      <path id="Path_2706" data-name="Path 2706" d="M169.607,109.555c0-7.41,6.063-12.294,14.146-12.294s14.146,4.884,14.146,12.294-6.063,12.294-14.146,12.294S169.607,116.965,169.607,109.555Zm18.862,0c0-7.634-1.179-11.9-4.715-11.9s-4.716,4.267-4.716,11.9,1.179,11.9,4.716,11.9S188.469,117.189,188.469,109.555Z" transform="translate(-169.607 -81.182)" fill="#fff"/>
      <path id="Path_2707" data-name="Path 2707" d="M465.143,115.225c0-4.771,4.435-6.568,9.88-6.568a26.118,26.118,0,0,1,6.119.73v-5.894c0-3.2-.674-5.95-4.323-5.95a5.668,5.668,0,0,0-4.772,2.47,4.491,4.491,0,0,1,2.47,3.986,4.125,4.125,0,0,1-4.267,4.1,4.052,4.052,0,0,1-4.042-4.21c0-3.7,4.491-6.624,11.115-6.624,5.894,0,12.743,2.358,12.743,9.094v12.013c0,1.067.561,1.572,1.459,1.572,1.4,0,2.695-1.4,3.593-2.751l.281.168c-1.572,2.246-3.481,4.435-7.41,4.435-3.481,0-5.5-1.74-6.344-3.93a9.57,9.57,0,0,1-8.252,3.986C468.511,121.848,465.143,119.379,465.143,115.225Zm16,2.638v-8.027a11.281,11.281,0,0,0-2.695-.449c-2.919,0-4.154,2.021-4.154,5.389,0,2.751.842,5.221,3.256,5.221A4.632,4.632,0,0,0,481.142,117.863Z" transform="translate(-369.322 -81.182)" fill="#fff"/>
      <path id="Path_2708" data-name="Path 2708" d="M367.4,56.609l8.926-8.941V77.5l4.547-4.379c2.47-2.357,3.929-4.547,3.929-6.119,0-1.4-1.122-2.3-3.873-2.3v-.337h13.7V64.7c-2.919,0-5.221.955-7.915,3.144a30.734,30.734,0,0,0-2.975,2.695l-.169.168L392.1,83.9c1.179,1.852,2.639,3.48,4.716,3.48v.337h-12.35L377.5,76.94l-1.179,1.122v4.6c0,2.807.337,4.716,3.368,4.716v.337H364.03v-.337c3.032,0,3.368-1.908,3.368-4.716V56.609Z" transform="translate(-300.993 -47.668)" fill="#fff"/>
    </g>
    <g id="Group_176" data-name="Group 176" transform="translate(13.28 0)">
      <path id="Path_2709" data-name="Path 2709" d="M92.112,73l-36-50.7L42.353,36.467l-1.4-1.356L56.349,19.272,92.4,70.047,166.388,0l1.337,1.413Z" transform="translate(-40.958 0)" fill="#d51752"/>
    </g>
    <path id="Path_2710" data-name="Path 2710" d="M93.4,105.9l8.645-8.585v8.028c1.067-4.1,3.593-8.084,7.578-8.084a4.666,4.666,0,0,1,4.828,4.772,4.558,4.558,0,1,1-9.094-.337,6.843,6.843,0,0,0-3.031,3.7v10.61c0,3.144.9,4.884,3.93,4.884v.337H90.029v-.337c3.031,0,3.368-2.077,3.368-4.884V105.9Z" transform="translate(-60.839 -65.727)" fill="#fff"/>
    <path id="Path_2711" data-name="Path 2711" d="M16.111,106.354l8.926-8.92v18.693c0,2.807.337,4.884,3.368,4.884v.337H16.392v-3.986c-2.358,2.47-5.558,4.6-9.319,4.6-3.817,0-7.073-2.189-7.073-7.69v-7.936l8.926-8.905v17.851c0,2.751,1.235,3.873,2.975,3.873a6.251,6.251,0,0,0,4.21-2.021" transform="translate(0 -65.844)" fill="#fff"/>
  </g>
</svg>
